<?xml version="1.0" standalone="no"?>
<!DOCTYPE svg PUBLIC "-//W3C//DTD SVG 20010904//EN"
 "http://www.w3.org/TR/2001/REC-SVG-20010904/DTD/svg10.dtd">
<svg version="1.0" xmlns="http://www.w3.org/2000/svg"
 width="196.000000pt" height="192.000000pt" viewBox="0 0 196.000000 192.000000"
 preserveAspectRatio="xMidYMid meet">

<g transform="translate(0.000000,192.000000) scale(0.100000,-0.100000)"
fill="#1E2449" stroke="none">
<path d="M555 1391 c-242 -214 -440 -393 -440 -398 0 -13 845 -889 854 -884
12 6 861 723 861 727 0 4 -779 885 -814 921 l-21 21 -440 -387z m315 -204
c-66 -290 -120 -529 -120 -532 0 -4 -6 -5 -13 -3 -30 7 -586 343 -579 349 141
131 828 727 830 720 2 -5 -51 -245 -118 -534z m-370 -435 l215 -128 32 -65
c59 -116 162 -349 155 -348 -4 1 -115 113 -247 251 -369 383 -433 453 -400
435 17 -9 127 -74 245 -145z m1256 60 c-6 -11 -774 -656 -784 -659 -6 -2 -199
420 -209 458 -4 14 40 25 289 73 161 31 381 74 488 95 217 43 223 44 216 33z"/>
</g>
</svg>
