<svg width="543" height="85" viewBox="0 0 543 85" fill="none" xmlns="http://www.w3.org/2000/svg">
<path d="M22.6633 65.8777C15.6414 65.8777 10.166 63.7879 6.23711 59.6082C2.33607 55.4285 0.385547 49.4516 0.385547 41.6773C0.385547 34.1539 2.43359 28.3163 6.52969 24.1645C10.6536 20.0126 16.0733 17.9367 22.7887 17.9367C28.1665 17.9367 32.7085 19.0931 36.4145 21.4059L33.823 29.2219C30.0335 27.2435 26.5086 26.2543 23.2484 26.2543C19.5424 26.2543 16.6167 27.5779 14.4711 30.225C12.3534 32.8721 11.2945 36.7314 11.2945 41.8027C11.2945 46.9298 12.3395 50.8309 14.4293 53.5059C16.547 56.1809 19.5285 57.5184 23.3738 57.5184C27.3863 57.5184 31.2456 56.3341 34.9516 53.9656L35.9965 62.2832C34.0738 63.565 32.0815 64.4845 30.0195 65.0418C27.9576 65.5991 25.5055 65.8777 22.6633 65.8777ZM65.5887 65.8777C58.2046 65.8777 52.4505 63.76 48.3266 59.5246C44.2305 55.2613 42.1824 49.3819 42.1824 41.8863C42.1824 34.5858 44.119 28.776 47.9922 24.457C51.8654 20.138 57.1457 17.9646 63.8332 17.9367C70.1585 17.9367 75.0626 19.9151 78.5457 23.8719C82.0566 27.8286 83.8121 33.0811 83.8121 39.6293C83.8121 40.103 83.7982 40.8693 83.7703 41.9281C83.7703 42.987 83.7703 43.7672 83.7703 44.2688H53.2168C53.3283 48.5599 54.4986 51.8897 56.7277 54.2582C58.9848 56.5988 62.0777 57.7691 66.0066 57.7691C71.0223 57.7691 75.8428 56.4595 80.4684 53.8402L82.0148 61.6145C77.4172 64.4566 71.9418 65.8777 65.5887 65.8777ZM53.4258 37.3723H73.4883C73.4883 33.6384 72.6384 30.7684 70.9387 28.7621C69.2389 26.7559 66.8844 25.7527 63.875 25.7527C61.0607 25.7527 58.6783 26.728 56.7277 28.6785C54.8051 30.629 53.7044 33.527 53.4258 37.3723ZM92.7566 65V19.0652H101.576L102.788 24.875C107.469 20.2495 112.666 17.9367 118.378 17.9367C123.728 17.9367 127.727 19.4832 130.374 22.5762C133.049 25.6413 134.386 30.0996 134.386 35.9512V65H123.394V37.2887C123.366 33.5827 122.767 30.8102 121.596 28.9711C120.426 27.132 118.322 26.2125 115.285 26.2125C112.917 26.2125 110.743 26.8255 108.765 28.0516C106.814 29.2497 105.393 30.7684 104.502 32.6074C103.972 34.7809 103.707 38.1246 103.707 42.6387V65H92.7566ZM163.519 65.627C160.398 65.627 157.793 65.2647 155.703 64.5402C153.641 63.7879 152.025 62.6176 150.854 61.0293C149.684 59.441 148.848 57.5741 148.346 55.4285C147.873 53.2551 147.636 50.5801 147.636 47.4035V25.7109H140.112L140.53 19.7758L148.388 19.0652L151.899 6.60977L158.587 6.56797V19.0652H169.997V25.7109H158.587V47.6125C158.587 51.0956 159.088 53.5755 160.091 55.0523C161.095 56.5292 162.948 57.2676 165.65 57.2676C167.239 57.2676 168.938 57.1283 170.75 56.8496L171.042 64.7074C170.986 64.7074 170.638 64.7771 169.997 64.9164C169.384 65.0279 168.785 65.1254 168.2 65.209C167.643 65.3204 166.918 65.418 166.027 65.5016C165.135 65.5852 164.299 65.627 163.519 65.627ZM178.816 65V19.0652H188.012L189.433 26.0871C192.442 21.2665 196.803 18.8563 202.515 18.8563C203.713 18.8563 204.689 18.912 205.441 19.0234L205.274 28.177C204.159 28.0098 203.003 27.9262 201.805 27.9262C197.764 27.9262 194.741 28.999 192.735 31.1445C190.756 33.2901 189.767 36.2716 189.767 40.0891V65H178.816ZM223.915 65.8777C219.652 65.8777 216.197 64.7074 213.55 62.3668C210.93 59.9983 209.621 56.5988 209.621 52.1684C209.621 47.4035 211.181 43.8786 214.302 41.5938C217.423 39.281 222.132 37.8181 228.429 37.2051C229.293 37.0936 230.227 36.9822 231.23 36.8707C232.233 36.7592 233.361 36.6478 234.615 36.5363C235.869 36.4249 236.858 36.3273 237.583 36.2438V33.8195C237.583 31.0331 236.942 29.0129 235.66 27.759C234.378 26.4772 232.428 25.8363 229.809 25.8363C226.075 25.8363 221.463 26.8813 215.974 28.9711C215.946 28.8875 215.486 27.6197 214.595 25.1676C213.703 22.7155 213.243 21.4616 213.215 21.4059C218.621 19.0931 224.473 17.9367 230.77 17.9367C236.956 17.9367 241.456 19.2882 244.27 21.991C247.085 24.666 248.492 29.0129 248.492 35.0316V65H240.383C240.355 64.8885 240.049 63.9551 239.464 62.1996C238.879 60.4441 238.586 59.5107 238.586 59.3992C236.301 61.6284 234.058 63.2724 231.857 64.3313C229.683 65.3622 227.036 65.8777 223.915 65.8777ZM226.883 58.1035C229.418 58.1035 231.62 57.5044 233.487 56.3063C235.382 55.0802 236.733 53.6034 237.541 51.8758V43.0148C237.457 43.0148 236.719 43.0706 235.326 43.182C233.96 43.2935 233.222 43.3492 233.111 43.3492C228.68 43.7393 225.434 44.5753 223.372 45.857C221.31 47.1388 220.279 49.2008 220.279 52.043C220.279 53.9935 220.85 55.4982 221.993 56.557C223.135 57.588 224.765 58.1035 226.883 58.1035ZM275.618 65.627C272.469 65.627 269.85 65.2647 267.76 64.5402C265.698 63.7879 264.068 62.6036 262.87 60.9875C261.672 59.3714 260.836 57.4487 260.362 55.2195C259.888 52.9904 259.652 50.2178 259.652 46.902V2.1375L270.602 1.42695V46.693C270.602 50.8169 271.09 53.6173 272.065 55.0941C273.041 56.5431 274.935 57.2676 277.75 57.2676C279.143 57.2676 280.912 57.1143 283.058 56.8078L283.35 64.6238C283.323 64.6238 282.974 64.6935 282.305 64.8328C281.665 64.9721 281.038 65.0836 280.425 65.1672C279.839 65.2786 279.087 65.3762 278.168 65.4598C277.248 65.5712 276.398 65.627 275.618 65.627ZM289.035 65V19.0652H299.986V65H289.035ZM289.035 12.3777V3.01524H300.027V12.3777H289.035ZM329.787 65.627C326.666 65.627 324.061 65.2647 321.971 64.5402C319.909 63.7879 318.293 62.6176 317.122 61.0293C315.952 59.441 315.116 57.5741 314.614 55.4285C314.141 53.2551 313.904 50.5801 313.904 47.4035V25.7109H306.38L306.798 19.7758L314.656 19.0652L318.167 6.60977L324.855 6.56797V19.0652H336.265V25.7109H324.855V47.6125C324.855 51.0956 325.356 53.5755 326.359 55.0523C327.362 56.5292 329.215 57.2676 331.918 57.2676C333.507 57.2676 335.206 57.1283 337.018 56.8496L337.31 64.7074C337.254 64.7074 336.906 64.7771 336.265 64.9164C335.652 65.0279 335.053 65.1254 334.468 65.209C333.911 65.3204 333.186 65.418 332.295 65.5016C331.403 65.5852 330.567 65.627 329.787 65.627ZM347.467 84.352C345.683 84.352 343.789 84.2405 341.782 84.0176L341.239 75.5328C342.521 75.6721 344.151 75.7418 346.129 75.7418C348.665 75.7418 350.699 75.2402 352.232 74.2371C353.764 73.234 355.032 71.4507 356.035 68.8871C356.147 68.6085 356.704 67.0341 357.707 64.1641L339.233 19.0652H350.936L363.015 52.3773C363.907 49.0615 365.899 42.9034 368.992 33.9031C372.113 24.9029 373.827 19.9569 374.133 19.0652H385.836C373.102 52.7257 366.679 69.6952 366.568 69.9738C364.59 75.1288 362.096 78.8069 359.086 81.0082C356.077 83.2374 352.204 84.352 347.467 84.352ZM404.436 65.8359C399.978 65.8359 396.815 64.6378 394.948 62.2414C393.109 59.8451 392.189 55.6793 392.189 49.7441V1.34336L399.128 0.925392V46.9855C399.128 48.8803 399.142 50.399 399.17 51.5414C399.225 52.6839 399.337 53.8124 399.504 54.927C399.671 56.0137 399.894 56.8357 400.173 57.393C400.451 57.9503 400.855 58.4658 401.385 58.9395C401.914 59.3853 402.541 59.6918 403.266 59.859C404.018 59.9983 404.937 60.068 406.024 60.068C406.916 60.068 408.671 59.9008 411.291 59.5664L411.667 65.1254C408.797 65.5991 406.386 65.8359 404.436 65.8359ZM429.18 60.3188C432.496 60.3188 435.407 59.4132 437.915 57.602C440.451 55.7629 442.081 53.2969 442.805 50.2039V42.4715C442.666 42.4715 441.816 42.5411 440.256 42.6805C438.723 42.8198 437.72 42.9034 437.246 42.9313C431.2 43.4607 426.978 44.4499 424.582 45.8988C422.214 47.3478 421.029 49.6745 421.029 52.8789C421.029 55.331 421.754 57.184 423.203 58.4379C424.652 59.6918 426.644 60.3188 429.18 60.3188ZM444.352 65C443.934 63.2167 443.53 61.294 443.14 59.232C440.604 61.7677 438.222 63.5232 435.993 64.4984C433.763 65.4737 431.144 65.9613 428.135 65.9613C423.844 65.9613 420.388 64.8467 417.769 62.6176C415.178 60.3605 413.882 57.1283 413.882 52.9207C413.882 48.2395 415.651 44.7703 419.19 42.5133C422.757 40.2563 427.884 38.8491 434.571 38.2918C435.491 38.2082 436.87 38.0967 438.709 37.9574C440.576 37.7902 441.97 37.6648 442.889 37.5813V33.527C442.889 30.2947 442.137 27.8983 440.632 26.3379C439.127 24.7775 436.759 23.9973 433.527 23.9973C429.012 23.9973 424.457 25.1118 419.859 27.341C419.72 27.0066 419.357 26.0453 418.772 24.457C418.187 22.8409 417.881 22.0049 417.853 21.9492C419.887 20.8068 422.297 19.9012 425.084 19.2324C427.898 18.5358 430.754 18.1875 433.652 18.1875C439.364 18.1875 443.474 19.4414 445.982 21.9492C448.518 24.4292 449.786 28.6646 449.786 34.6555V65H444.352ZM482.68 23.9973C478.249 23.9973 474.85 25.5298 472.481 28.5949C470.141 31.6322 468.97 36.1044 468.97 42.0117C468.97 54.1049 473.526 60.1516 482.638 60.1516C484.895 60.1516 486.873 59.6918 488.573 58.7723C490.301 57.8249 491.652 56.5152 492.627 54.8434C493.63 53.1436 494.369 51.2349 494.843 49.1172C495.344 46.9995 495.595 44.6449 495.595 42.0535C495.595 38.5426 495.177 35.4775 494.341 32.8582C493.533 30.2389 492.14 28.1073 490.161 26.4633C488.183 24.8193 485.689 23.9973 482.68 23.9973ZM483.39 18.1875C487.458 18.1875 490.969 19.2185 493.923 21.2805C496.877 23.3424 499.092 26.1428 500.569 29.6816C502.046 33.2204 502.784 37.2747 502.784 41.8445C502.784 46.5815 502.046 50.7473 500.569 54.3418C499.12 57.9363 496.905 60.7785 493.923 62.8684C490.969 64.9303 487.431 65.9613 483.307 65.9613C480.269 65.9613 477.497 65.3065 474.989 63.9969C472.481 62.6872 470.391 60.9039 468.72 58.6469L468.009 65H462.032V1.34336L469.012 0.925392V16.0977C469.012 19.8315 468.956 23.0359 468.845 25.7109C470.461 23.3982 472.551 21.573 475.114 20.2355C477.706 18.8702 480.464 18.1875 483.39 18.1875ZM526.316 65.9613C523.195 65.9613 520.311 65.627 517.664 64.9582C515.044 64.2895 512.913 63.4257 511.269 62.3668L512.146 56.4734C516.8 58.9534 521.37 60.1934 525.856 60.1934C532.655 60.1934 536.152 57.797 536.347 53.0043C536.347 50.9702 535.622 49.368 534.173 48.1977C532.724 47.0273 529.882 45.7177 525.647 44.2688L522.178 43.0566C518.165 41.7191 515.295 40.0612 513.568 38.0828C511.868 36.1044 511.004 33.6384 510.976 30.6848C510.976 27.0902 512.411 24.1087 515.281 21.7402C518.179 19.3717 522.136 18.1875 527.152 18.1875C532.334 18.1875 537.057 19.1906 541.321 21.1969L539.273 26.5469C534.954 24.7635 530.913 23.8719 527.152 23.8719C524.226 23.8719 521.927 24.457 520.255 25.6273C518.611 26.7698 517.789 28.3859 517.789 30.4758C517.789 32.2591 518.388 33.6245 519.586 34.5719C520.784 35.5193 523.181 36.606 526.775 37.832C527.695 38.1664 528.851 38.5565 530.245 39.0023C534.87 40.507 538.144 42.2904 540.067 44.3523C541.989 46.3865 542.951 49.1451 542.951 52.6281C542.895 56.8635 541.376 60.1516 538.395 62.4922C535.413 64.8049 531.387 65.9613 526.316 65.9613Z" fill="white"/>
</svg>
